<mxfile host="app.diagrams.net" modified="2024-06-14T17:47:21.403Z" agent="Mozilla/5.0 (Windows NT 10.0; Win64; x64) AppleWebKit/537.36 (KHTML, like Gecko) Chrome/126.0.0.0 Safari/537.36" etag="yqdzoDDgm9Cc-1RT-4aC" version="24.5.4" type="github">
  <diagram name="Page-1" id="HCB2hZKf-n2kw5awFJhK">
    <mxGraphModel dx="1568" dy="997" grid="0" gridSize="10" guides="1" tooltips="1" connect="1" arrows="1" fold="1" page="1" pageScale="1" pageWidth="850" pageHeight="1100" math="0" shadow="0">
      <root>
        <mxCell id="0" />
        <mxCell id="1" parent="0" />
        <mxCell id="hBSSRV6cEmvkAsClEgpi-27" style="edgeStyle=orthogonalEdgeStyle;rounded=0;orthogonalLoop=1;jettySize=auto;html=1;entryX=1;entryY=0.5;entryDx=0;entryDy=0;" parent="1" source="hBSSRV6cEmvkAsClEgpi-1" target="hBSSRV6cEmvkAsClEgpi-11" edge="1">
          <mxGeometry relative="1" as="geometry" />
        </mxCell>
        <mxCell id="hBSSRV6cEmvkAsClEgpi-33" style="edgeStyle=orthogonalEdgeStyle;rounded=0;orthogonalLoop=1;jettySize=auto;html=1;entryX=0.5;entryY=0;entryDx=0;entryDy=0;" parent="1" source="hBSSRV6cEmvkAsClEgpi-1" target="hBSSRV6cEmvkAsClEgpi-4" edge="1">
          <mxGeometry relative="1" as="geometry" />
        </mxCell>
        <mxCell id="hBSSRV6cEmvkAsClEgpi-1" value="&lt;font style=&quot;font-size: 20px;&quot;&gt;UAT&lt;/font&gt;" style="rounded=0;whiteSpace=wrap;html=1;" parent="1" vertex="1">
          <mxGeometry x="252" y="371" width="120" height="122" as="geometry" />
        </mxCell>
        <mxCell id="hBSSRV6cEmvkAsClEgpi-19" style="edgeStyle=orthogonalEdgeStyle;rounded=0;orthogonalLoop=1;jettySize=auto;html=1;entryX=1;entryY=0.5;entryDx=0;entryDy=0;" parent="1" source="hBSSRV6cEmvkAsClEgpi-4" target="hBSSRV6cEmvkAsClEgpi-10" edge="1">
          <mxGeometry relative="1" as="geometry" />
        </mxCell>
        <mxCell id="hBSSRV6cEmvkAsClEgpi-4" value="&lt;font style=&quot;font-size: 20px;&quot;&gt;PROD&lt;/font&gt;" style="rounded=0;whiteSpace=wrap;html=1;" parent="1" vertex="1">
          <mxGeometry x="252" y="534" width="120" height="155" as="geometry" />
        </mxCell>
        <mxCell id="hBSSRV6cEmvkAsClEgpi-17" style="edgeStyle=orthogonalEdgeStyle;rounded=0;orthogonalLoop=1;jettySize=auto;html=1;" parent="1" source="hBSSRV6cEmvkAsClEgpi-5" edge="1">
          <mxGeometry relative="1" as="geometry">
            <mxPoint x="149.5999755859375" y="264.6000061035156" as="targetPoint" />
          </mxGeometry>
        </mxCell>
        <mxCell id="hBSSRV6cEmvkAsClEgpi-5" value="&lt;font style=&quot;font-size: 20px;&quot;&gt;DEV&lt;/font&gt;" style="rounded=0;whiteSpace=wrap;html=1;" parent="1" vertex="1">
          <mxGeometry x="233" y="145" width="120" height="163" as="geometry" />
        </mxCell>
        <mxCell id="hBSSRV6cEmvkAsClEgpi-31" style="edgeStyle=orthogonalEdgeStyle;rounded=0;orthogonalLoop=1;jettySize=auto;html=1;entryX=1;entryY=0.25;entryDx=0;entryDy=0;" parent="1" source="hBSSRV6cEmvkAsClEgpi-6" target="hBSSRV6cEmvkAsClEgpi-1" edge="1">
          <mxGeometry relative="1" as="geometry" />
        </mxCell>
        <mxCell id="hBSSRV6cEmvkAsClEgpi-6" value="&lt;font style=&quot;font-size: 20px;&quot;&gt;IR0001&lt;/font&gt;" style="rounded=0;whiteSpace=wrap;html=1;" parent="1" vertex="1">
          <mxGeometry x="576" y="70" width="120" height="44" as="geometry" />
        </mxCell>
        <mxCell id="hBSSRV6cEmvkAsClEgpi-29" style="edgeStyle=orthogonalEdgeStyle;rounded=0;orthogonalLoop=1;jettySize=auto;html=1;" parent="1" source="hBSSRV6cEmvkAsClEgpi-7" edge="1">
          <mxGeometry relative="1" as="geometry">
            <mxPoint x="359.20001220703125" y="221.4000244140625" as="targetPoint" />
          </mxGeometry>
        </mxCell>
        <mxCell id="hBSSRV6cEmvkAsClEgpi-7" value="&lt;font style=&quot;font-size: 20px;&quot;&gt;IR0002&lt;/font&gt;" style="rounded=0;whiteSpace=wrap;html=1;" parent="1" vertex="1">
          <mxGeometry x="621" y="170" width="117" height="60" as="geometry" />
        </mxCell>
        <mxCell id="hBSSRV6cEmvkAsClEgpi-25" style="edgeStyle=orthogonalEdgeStyle;rounded=0;orthogonalLoop=1;jettySize=auto;html=1;" parent="1" source="hBSSRV6cEmvkAsClEgpi-8" target="hBSSRV6cEmvkAsClEgpi-5" edge="1">
          <mxGeometry relative="1" as="geometry">
            <Array as="points">
              <mxPoint x="477" y="289" />
              <mxPoint x="477" y="269" />
            </Array>
          </mxGeometry>
        </mxCell>
        <mxCell id="hBSSRV6cEmvkAsClEgpi-30" style="edgeStyle=orthogonalEdgeStyle;rounded=0;orthogonalLoop=1;jettySize=auto;html=1;exitX=0.5;exitY=1;exitDx=0;exitDy=0;entryX=1;entryY=0.5;entryDx=0;entryDy=0;" parent="1" source="hBSSRV6cEmvkAsClEgpi-8" target="hBSSRV6cEmvkAsClEgpi-1" edge="1">
          <mxGeometry relative="1" as="geometry" />
        </mxCell>
        <mxCell id="hBSSRV6cEmvkAsClEgpi-8" value="&lt;font style=&quot;font-size: 20px;&quot;&gt;IR0003&lt;/font&gt;" style="rounded=0;whiteSpace=wrap;html=1;" parent="1" vertex="1">
          <mxGeometry x="638" y="261" width="120" height="60" as="geometry" />
        </mxCell>
        <mxCell id="hBSSRV6cEmvkAsClEgpi-10" value="&lt;font style=&quot;font-size: 20px;&quot;&gt;WCB.AB.CA&lt;/font&gt;" style="rounded=0;whiteSpace=wrap;html=1;" parent="1" vertex="1">
          <mxGeometry x="38" y="553" width="120" height="60" as="geometry" />
        </mxCell>
        <mxCell id="hBSSRV6cEmvkAsClEgpi-11" value="&lt;font style=&quot;font-size: 20px;&quot;&gt;WCBUAT&lt;/font&gt;" style="rounded=0;whiteSpace=wrap;html=1;" parent="1" vertex="1">
          <mxGeometry x="19" y="394" width="120" height="60" as="geometry" />
        </mxCell>
        <mxCell id="hBSSRV6cEmvkAsClEgpi-12" value="&lt;font style=&quot;font-size: 20px;&quot;&gt;WCBDEV&lt;/font&gt;" style="rounded=0;whiteSpace=wrap;html=1;" parent="1" vertex="1">
          <mxGeometry x="25" y="235" width="120" height="60" as="geometry" />
        </mxCell>
        <mxCell id="hBSSRV6cEmvkAsClEgpi-23" style="edgeStyle=orthogonalEdgeStyle;rounded=0;orthogonalLoop=1;jettySize=auto;html=1;exitX=0;exitY=0.5;exitDx=0;exitDy=0;entryX=1.025;entryY=0.164;entryDx=0;entryDy=0;entryPerimeter=0;" parent="1" source="hBSSRV6cEmvkAsClEgpi-6" target="hBSSRV6cEmvkAsClEgpi-5" edge="1">
          <mxGeometry relative="1" as="geometry" />
        </mxCell>
      </root>
    </mxGraphModel>
  </diagram>
</mxfile>
